<?xml version="1.0" encoding="UTF-8"?>
<svg id="Calque_1" data-name="Calque 1" xmlns="http://www.w3.org/2000/svg" viewBox="0 0 128 128">
  <defs>
    <style>
      .cls-1 {
        fill: #213462;
      }
    </style>
  </defs>
  <path class="cls-1" d="m61.54,61.89v.13h-.25c.13-.13.25-.13.25-.13Z"/>
  <path class="cls-1" d="m61.54,61.89v.13h-.25c.13-.13.25-.13.25-.13Z"/>
  <path class="cls-1" d="m15.24,38.3c-.25-2.14.25-4.42,1.64-6.18,2.27-2.9,8.33-6.43,8.33-6.43h4.67c-1.14,1.14-7.06,6.18-7.06,6.18l4.54.13s-4.79,4.54-6.94,5.42c-1.64.63-3.41.88-5.17.88Z"/>
  <path class="cls-1" d="m12.72,37.17v3.91h4.79c-1.14,4.16-4.54,7.19-8.7,7.95,0-.13-1.89-9.97,3.91-11.86Z"/>
  <path class="cls-1" d="m6.16,46.25l.13,3.78h5.05c-.76,3.78-3.03,7.06-6.31,8.96,0,0-4.16-7.7,1.14-12.74Z"/>
  <path class="cls-1" d="m1.62,58.87l3.78,3.66,3.28-2.9s2.02,9.34-3.66,16.02c-.13-.13-5.93-3.41-3.41-16.78Z"/>
  <path class="cls-1" d="m5.91,78.8l3.91-6.43s1.77,10.09-1.39,17.41c0,0-9.21-4.16-8.07-16.02l5.55,5.05Z"/>
  <path class="cls-1" d="m5.02,90.03l6.31,2.9.13-7.7s7.32,5.55,5.05,19.3c0,0-10.85-2.02-11.48-14.51Z"/>
  <path class="cls-1" d="m12.59,107.82l7.57-.13c-.13-3.03-.63-6.06-1.51-8.96,0,0,15.9,15.39,20.56,16.4,2.4.5,4.92.63,7.44.5v2.14l-20.69.13s-10.6-2.9-13.37-10.09Z"/>
  <path class="cls-1" d="m104.94,118.92s-3.15,6.94-14.51,6.94c-5.68,0-19.81-4.29-19.81-4.29l4.04,6.43h-5.55l-5.17-6.69-5.17,6.69h-5.55l4.04-6.43s-14.13,4.29-19.81,4.29c-11.35,0-14.51-6.94-14.51-6.94h82Z"/>
  <path class="cls-1" d="m66.59,61.89h-.25v-.13q.13.13.25.13Z"/>
  <path class="cls-1" d="m66.59,61.89h-.25v-.13q.13.13.25.13Z"/>
  <path class="cls-1" d="m111.25,80.69c1.01-3.41,1.51-6.94,1.64-10.34h-4.79v-4.29h4.67c-.25-3.66-.76-7.32-1.64-10.85l-4.79.88-.5-3.28,4.42-.76c-1.51-4.54-3.53-8.58-6.31-12.36l-3.28,2.65-2.14-2.52,3.28-2.78c-.76-.88-1.51-1.64-2.27-2.4l-9.21,9.71c6.81,6.69,10.6,15.77,10.6,25.23-.13,16.15-11.1,30.4-26.87,34.44v-3.15c-.38-6.81-3.03-12.24-6.69-14.38,3.78-1.89,6.31-6.56,6.31-12.11s-2.9-10.72-7.06-12.36h-.25v-.13q.13,0,.25.13c4.79-2.14,6.94-7.7,4.79-12.49-1.01-2.27-2.78-3.91-5.05-4.92v-.38c5.17-.25,13.62-6.06,13.62-12.87,0-4.79-4.92-8.07-9.71-8.07-2.27,0-3.41.5-3.91,1.26v-7.32c2.02,1.77,5.3,2.78,7.06,2.78,2.9,0,2.02-1.89,5.68-1.89,3.15,0,7.06,7.82,7.06,7.82l25.48-.13c-5.42-7.57-25.61-21.45-25.61-21.45,0,0-11.86-9.21-14.13-.76-1.64,6.06-4.42,7.06-5.55,7.19v-2.4c.25-1.14,3.03-2.27,3.28-3.91.38-2.27-2.52-4.16-5.68-4.42-3.15.25-6.18,2.14-5.68,4.42.25,1.64,3.15,2.78,3.41,3.91v2.27c-1.14-.13-3.91-1.14-5.55-7.19-2.27-8.33-14.13.88-14.13.88,0,0-20.18,13.88-25.74,21.19l25.48.13s3.78-7.82,7.06-7.82c3.66,0,2.9,1.89,5.68,1.89,1.77,0,5.05-1.01,7.06-2.78v7.32c-.5-.76-1.64-1.26-3.91-1.26-4.79,0-9.71,3.28-9.71,8.07,0,6.81,8.45,12.62,13.62,12.87v.38c-4.79,2.02-7.19,7.57-5.05,12.36.88,2.27,2.65,4.04,4.92,5.05,0,0,.13,0,.25-.13v.13h-.25c-4.04,1.64-7.06,6.56-7.06,12.36s2.65,10.22,6.31,12.11c-3.78,2.14-6.31,7.57-6.81,14.38v3.03c-15.77-4.04-26.74-18.17-26.87-34.44,0-9.46,3.78-18.54,10.6-25.23l-9.21-9.34c-.76.76-1.64,1.64-2.27,2.4l3.28,2.78-2.14,2.52-3.28-2.65c-2.65,3.66-4.79,7.82-6.18,12.24l4.42.76-.5,3.28-4.79-.88c-.88,3.53-1.51,7.19-1.64,10.85h4.67v4.29h-4.79c.13,3.53.63,6.94,1.64,10.34h4.92v4.29h-3.53c1.51,4.04,3.66,7.82,6.18,11.35h4.54v4.29h-1.14c2.4,2.78,5.17,5.3,8.2,7.57h5.42v3.53c3.66,2.14,7.7,3.53,11.86,4.42v-3.15h3.53v3.78c1.14.13,2.27.13,3.41.13h7.82c1.14,0,2.27,0,3.41-.13v-3.78h3.53v3.28c4.16-.88,8.2-2.27,11.86-4.42v-3.53h5.42c3.03-2.27,5.68-4.79,8.2-7.57h-1.26v-4.29h4.54c2.52-3.53,4.54-7.32,6.18-11.35h-3.53v-4.29s4.92,0,4.92,0Zm-44.91-52.73c.5,1.01,1.77,2.02,3.66,2.4,2.52.5,4.67-2.14,4.67-2.14.13,1.26,0,2.52-.38,3.78-1.01,4.92-5.68,7.19-8.07,7.7v-11.73h.13Zm0,20.82c1.39,1.14,2.14,2.78,2.02,4.54,0,1.77-.76,3.41-2.02,4.54v-9.08Zm-12.87-16.78c-.25-1.26-.38-2.52-.38-3.78,0,0,2.27,2.52,4.67,2.14,1.89-.38,3.15-1.39,3.66-2.4v11.73c-2.14-.5-6.94-2.78-7.95-7.7Zm7.57,17.28c.13-.25.38-.38.63-.63v9.08c-2.52-2.14-2.78-5.93-.63-8.45Zm-2.9,25.1c-.13-3.15,1.14-6.18,3.53-8.2v16.4c-2.4-2.14-3.66-5.05-3.53-8.2Zm0,30.4h-.25c0-.76-.13-1.39-.13-2.14v-1.14c.25-4.92,1.77-8.83,3.66-10.98l.13-.13v14.76c-1.14-.13-2.27-.13-3.41-.38Zm8.2-38.6c2.27,2.02,3.66,5.05,3.53,8.2.13,3.15-1.14,6.18-3.53,8.2,0,0,0-16.4,0-16.4Zm3.66,38.6h-.25c-1.14.13-2.27.25-3.41.38v-14.76l.13.13c1.89,2.14,3.41,6.06,3.66,10.98v1.14c0,.76,0,1.39-.13,2.14Z"/>
  <path class="cls-1" d="m112.76,38.3c.25-2.14-.25-4.42-1.64-6.18-2.27-2.9-8.33-6.43-8.33-6.43h-4.67c1.14,1.14,7.06,6.18,7.06,6.18l-4.54.13s4.79,4.54,6.94,5.42c1.64.63,3.41.88,5.17.88Z"/>
  <path class="cls-1" d="m115.28,37.17v3.91h-4.79c1.14,4.16,4.54,7.19,8.7,7.95,0-.13,1.89-9.97-3.91-11.86Z"/>
  <path class="cls-1" d="m121.84,46.25l-.13,3.78h-5.05c.76,3.78,3.03,7.06,6.31,8.96,0,0,4.16-7.7-1.14-12.74Z"/>
  <path class="cls-1" d="m126.38,58.87l-3.78,3.66-3.28-2.9s-2.02,9.34,3.66,16.02c.13-.13,5.93-3.41,3.41-16.78Z"/>
  <path class="cls-1" d="m122.09,78.8l-3.91-6.43s-1.77,10.09,1.39,17.41c0,0,9.21-4.16,8.07-16.02l-5.55,5.05Z"/>
  <path class="cls-1" d="m122.98,91.29l-6.31,2.9-.13-7.7s-7.32,5.55-5.05,19.3c0,0,10.85-2.02,11.48-14.51Z"/>
  <path class="cls-1" d="m115.41,107.82l-7.57-.13c.13-3.03.63-6.06,1.51-8.96,0,0-15.9,15.39-20.56,16.4-2.4.5-4.92.63-7.44.5v2.14l20.56.13s10.72-2.9,13.5-10.09Z"/>
</svg>