<?xml version="1.0" encoding="UTF-8"?>
<svg id="Calque_1" data-name="Calque 1" xmlns="http://www.w3.org/2000/svg" viewBox="0 0 247.7 117.4">
  <defs>
    <style>
      .cls-1 {
        fill: #fff;
      }
    </style>
  </defs>
  <path class="cls-1" d="m50.54,57.53v.1h-.21c.1-.1.21-.1.21-.1Z"/>
  <path class="cls-1" d="m50.54,57.53v.1h-.21c.1-.1.21-.1.21-.1Z"/>
  <path class="cls-1" d="m12.36,38.08c-.21-1.77.21-3.64,1.35-5.1,1.87-2.39,6.87-5.31,6.87-5.31h3.85c-.94.94-5.83,5.1-5.83,5.1l3.75.1s-3.95,3.75-5.72,4.47c-1.35.52-2.81.73-4.27.73Z"/>
  <path class="cls-1" d="m10.28,37.14v3.23h3.95c-.94,3.43-3.75,5.93-7.18,6.56,0-.1-1.56-8.22,3.23-9.78Z"/>
  <path class="cls-1" d="m4.87,44.63l.1,3.12h4.16c-.62,3.12-2.5,5.83-5.2,7.39,0,0-3.43-6.35.94-10.51Z"/>
  <path class="cls-1" d="m1.12,55.04l3.12,3.02,2.71-2.39s1.66,7.7-3.02,13.21c-.1-.1-4.89-2.81-2.81-13.84Z"/>
  <path class="cls-1" d="m4.66,71.47l3.23-5.31s1.46,8.32-1.14,14.36c0,0-7.6-3.43-6.66-13.21l4.58,4.16Z"/>
  <path class="cls-1" d="m3.93,80.74l5.2,2.39.1-6.35s6.03,4.58,4.16,15.92c0,0-8.95-1.66-9.47-11.97Z"/>
  <path class="cls-1" d="m10.17,95.41l6.24-.1c-.1-2.5-.52-4.99-1.25-7.39,0,0,13.11,12.69,16.96,13.53,1.98.42,4.06.52,6.14.42v1.77l-17.06.1s-8.74-2.39-11.03-8.32Z"/>
  <path class="cls-1" d="m86.34,104.56s-2.6,5.72-11.97,5.72c-4.68,0-16.34-3.54-16.34-3.54l3.33,5.31h-4.58l-4.27-5.51-4.27,5.51h-4.58l3.33-5.31s-11.65,3.54-16.34,3.54c-9.36,0-11.97-5.72-11.97-5.72h67.63Z"/>
  <path class="cls-1" d="m54.71,57.53h-.21v-.1q.1.1.21.1Z"/>
  <path class="cls-1" d="m54.71,57.53h-.21v-.1q.1.1.21.1Z"/>
  <path class="cls-1" d="m91.54,73.04c.83-2.81,1.25-5.72,1.35-8.53h-3.95v-3.54h3.85c-.21-3.02-.62-6.03-1.35-8.95l-3.95.73-.42-2.71,3.64-.62c-1.25-3.75-2.91-7.08-5.2-10.2l-2.71,2.19-1.77-2.08,2.71-2.29c-.62-.73-1.25-1.35-1.87-1.98l-7.6,8.01c5.62,5.51,8.74,13.01,8.74,20.81-.1,13.32-9.16,25.08-22.16,28.41v-2.6c-.31-5.62-2.5-10.09-5.51-11.86,3.12-1.56,5.2-5.41,5.2-9.99s-2.39-8.84-5.83-10.2h-.21v-.1q.1,0,.21.1c3.95-1.77,5.72-6.35,3.95-10.3-.83-1.87-2.29-3.23-4.16-4.06v-.31c4.27-.21,11.24-4.99,11.24-10.61,0-3.95-4.06-6.66-8.01-6.66-1.87,0-2.81.42-3.23,1.04v-6.03c1.66,1.46,4.37,2.29,5.83,2.29,2.39,0,1.66-1.56,4.68-1.56,2.6,0,5.83,6.45,5.83,6.45l21.02-.1c-4.47-6.24-21.12-17.69-21.12-17.69,0,0-9.78-7.6-11.65-.62-1.35,4.99-3.64,5.83-4.58,5.93v-1.98c.21-.94,2.5-1.87,2.71-3.23.31-1.87-2.08-3.43-4.68-3.64-2.6.21-5.1,1.77-4.68,3.64.21,1.35,2.6,2.29,2.81,3.23v1.87c-.94-.1-3.23-.94-4.58-5.93-1.87-6.87-11.65.73-11.65.73,0,0-16.65,11.45-21.23,17.48l21.02.1s3.12-6.45,5.83-6.45c3.02,0,2.39,1.56,4.68,1.56,1.46,0,4.16-.83,5.83-2.29v6.03c-.42-.62-1.35-1.04-3.23-1.04-3.95,0-8.01,2.71-8.01,6.66,0,5.62,6.97,10.4,11.24,10.61v.31c-3.95,1.66-5.93,6.24-4.16,10.2.73,1.87,2.19,3.33,4.06,4.16,0,0,.1,0,.21-.1v.1h-.21c-3.33,1.35-5.83,5.41-5.83,10.2s2.19,8.43,5.2,9.99c-3.12,1.77-5.2,6.24-5.62,11.86v2.5c-13.01-3.33-22.06-14.98-22.16-28.41,0-7.8,3.12-15.3,8.74-20.81l-7.6-7.7c-.62.62-1.35,1.35-1.87,1.98l2.71,2.29-1.77,2.08-2.71-2.19c-2.19,3.02-3.95,6.45-5.1,10.09l3.64.62-.42,2.71-3.95-.73c-.73,2.91-1.25,5.93-1.35,8.95h3.85v3.54h-3.95c.1,2.91.52,5.72,1.35,8.53h4.06v3.54h-2.91c1.25,3.33,3.02,6.45,5.1,9.36h3.75v3.54h-.94c1.98,2.29,4.27,4.37,6.76,6.24h4.47v2.91c3.02,1.77,6.35,2.91,9.78,3.64v-2.6h2.91v3.12c.94.1,1.87.1,2.81.1h6.45c.94,0,1.87,0,2.81-.1v-3.12h2.91v2.71c3.43-.73,6.76-1.87,9.78-3.64v-2.91h4.47c2.5-1.87,4.68-3.95,6.76-6.24h-1.04v-3.54h3.75c2.08-2.91,3.75-6.03,5.1-9.36h-2.91v-3.54s4.06,0,4.06,0ZM54.5,29.54c.42.83,1.46,1.66,3.02,1.98,2.08.42,3.85-1.77,3.85-1.77.1,1.04,0,2.08-.31,3.12-.83,4.06-4.68,5.93-6.66,6.35v-9.68h.1Zm0,17.17c1.14.94,1.77,2.29,1.66,3.75,0,1.46-.62,2.81-1.66,3.75v-7.49Zm-10.61-13.84c-.21-1.04-.31-2.08-.31-3.12,0,0,1.87,2.08,3.85,1.77,1.56-.31,2.6-1.14,3.02-1.98v9.68c-1.77-.42-5.72-2.29-6.56-6.35Zm6.24,14.25c.1-.21.31-.31.52-.52v7.49c-2.08-1.77-2.29-4.89-.52-6.97Zm-2.39,20.71c-.1-2.6.94-5.1,2.91-6.76v13.53c-1.98-1.77-3.02-4.16-2.91-6.76Zm0,25.08h-.21c0-.62-.1-1.14-.1-1.77v-.94c.21-4.06,1.46-7.28,3.02-9.05l.1-.1v12.17c-.94-.1-1.87-.1-2.81-.31Zm6.76-31.84c1.87,1.66,3.02,4.16,2.91,6.76.1,2.6-.94,5.1-2.91,6.76,0,0,0-13.53,0-13.53Zm3.02,31.84h-.21c-.94.1-1.87.21-2.81.31v-12.17l.1.1c1.56,1.77,2.81,4.99,3.02,9.05v.94c0,.62,0,1.14-.1,1.77Z"/>
  <path class="cls-1" d="m92.79,38.08c.21-1.77-.21-3.64-1.35-5.1-1.87-2.39-6.87-5.31-6.87-5.31h-3.85c.94.94,5.83,5.1,5.83,5.1l-3.75.1s3.95,3.75,5.72,4.47c1.35.52,2.81.73,4.27.73Z"/>
  <path class="cls-1" d="m94.87,37.14v3.23h-3.95c.94,3.43,3.75,5.93,7.18,6.56,0-.1,1.56-8.22-3.23-9.78Z"/>
  <path class="cls-1" d="m100.28,44.63l-.1,3.12h-4.16c.62,3.12,2.5,5.83,5.2,7.39,0,0,3.43-6.35-.94-10.51Z"/>
  <path class="cls-1" d="m104.02,55.04l-3.12,3.02-2.71-2.39s-1.66,7.7,3.02,13.21c.1-.1,4.89-2.81,2.81-13.84Z"/>
  <path class="cls-1" d="m100.49,71.47l-3.23-5.31s-1.46,8.32,1.14,14.36c0,0,7.6-3.43,6.66-13.21l-4.58,4.16Z"/>
  <path class="cls-1" d="m101.22,81.78l-5.2,2.39-.1-6.35s-6.03,4.58-4.16,15.92c0,0,8.95-1.66,9.47-11.97Z"/>
  <path class="cls-1" d="m94.97,95.41l-6.24-.1c.1-2.5.52-4.99,1.25-7.39,0,0-13.11,12.69-16.96,13.53-1.98.42-4.06.52-6.14.42v1.77l16.96.1s8.84-2.39,11.13-8.32Z"/>
  <g>
    <rect class="cls-1" x="122.65" y="36.1" width="5.41" height="34.75"/>
    <g>
      <path class="cls-1" d="m122.03,85.31c0-1.98.94-3.43,2.08-4.27,1.04-.83,2.39-1.14,3.54-1.14.83,0,1.56.1,1.98.31.1.83.1,1.66.1,2.39-.31,0-.62.1-.94.1l-.21-1.56c0-.1-.1-.21-.1-.21-.31-.21-.73-.21-1.25-.21-.83,0-1.77.31-2.5.94-.83.83-1.35,1.98-1.35,3.33,0,1.25.21,2.08.94,2.81.52.62,1.56.94,2.6.94.94,0,1.98-.31,2.71-.62.1.21.1.52.21.73-1.14.42-2.29.73-3.12.73-1.04,0-2.19-.21-3.02-.83-.94-.62-1.66-1.87-1.66-3.43h0Z"/>
      <path class="cls-1" d="m138.46,88.85s0-.1,0,0c1.14-2.6,2.5-6.24,3.54-8.84h.83c1.04,2.6,2.29,6.24,3.33,8.84h.94v.62h-3.43v-.62h1.14v-.1c-.21-.62-.52-1.46-.73-2.08q0-.1-.1-.1h-3.64c-.21.73-.62,1.56-.83,2.19h1.35v.62h-3.33v-.62l.94.1Zm3.75-7.28c-.52,1.35-1.14,2.91-1.56,4.16v.1h3.23c-.52-1.25-1.14-2.91-1.66-4.27h0Z"/>
      <path class="cls-1" d="m155.01,80.84v-.62h2.91c.83,0,1.35,0,2.08.21,1.04.21,1.87,1.14,1.87,2.19,0,1.25-.94,2.19-2.08,2.6v.1c.73.31,1.14,1.14,1.87,2.5.52.94.62,1.04.83,1.04h.94v.73h-1.98c-.52-.62-1.46-2.6-1.98-3.33-.31-.52-.62-.62-1.46-.62h-.83v3.23h1.25v.73h-3.54v-.73h1.04v-8.01h-.94Zm2.19,3.95h.83c1.87,0,2.6-1.14,2.6-1.98,0-1.35-1.04-2.08-2.5-2.08-.52,0-.73,0-.83.1l-.1,3.95Z"/>
      <path class="cls-1" d="m174.15,88.85c.1,0,.1-.1,0,0l.1-7.91h-2.08c-.31,0-.42.1-.42.31l-.21,1.35c-.31,0-.62,0-.94-.1.1-.73.1-1.56.21-2.39h8.22c.1.73.1,1.56.1,2.39-.21,0-.62.1-.94.1l-.21-1.35c0-.21-.1-.21-.42-.31h-2.08v7.91h1.46v.73h-4.06v-.73h1.25Z"/>
      <path class="cls-1" d="m188.1,88.85c.1,0,.1-.1,0,0l.1-7.91h-1.04v-.62h3.43v.73h-1.14v3.43s0,.1.1.1h4.68v-3.75h-1.25v-.62h3.33v.62h-.94v8.01h1.04v.62h-3.43v-.73h1.14s.1,0,.1-.1v-3.64s0-.1-.1-.1h-4.68v3.75h1.25v.73h-3.43v-.73l.83.21Z"/>
      <path class="cls-1" d="m205.16,88.85s.1-.1,0,0c1.04-2.6,2.39-6.24,3.43-8.84h.83c.94,2.6,2.19,6.24,3.23,8.84h.83v.62h-3.23v-.62h1.14v-.1c-.21-.62-.52-1.46-.73-2.08q0-.1-.1-.1h-3.43c-.21.73-.52,1.56-.73,2.19h1.35v.62h-3.23v-.62l.62.1Zm3.64-7.28c-.52,1.35-1.04,2.91-1.56,4.16v.1h3.02c-.31-1.25-.94-2.91-1.46-4.27h0Z"/>
      <path class="cls-1" d="m227.95,81.46c0-.1,0-.21-.1-.31-.42-.31-.94-.42-1.46-.42-.73,0-1.66.21-2.39.94-.83.73-1.25,1.87-1.25,3.23,0,1.25.31,2.29,1.04,3.02.83.83,1.87,1.04,2.71,1.04.73,0,1.35-.21,1.35-.31v-2.5h-1.56v-.73h3.54v.73h-.73s-.1,0-.1.1v2.91c-.52.31-1.46.52-2.6.52-1.35,0-2.5-.31-3.33-.94-.94-.83-1.56-1.98-1.56-3.64,0-1.77.83-3.23,2.08-4.16.94-.73,2.29-.94,3.12-.94.94,0,1.66.21,2.19.42,0,.73.1,1.56.1,2.39-.31,0-.52.1-.83.1l-.21-1.46Z"/>
      <path class="cls-1" d="m239.7,88.85h0v-8.01h-1.04v-.73h6.14c.1.73.1,1.46.1,2.19-.21,0-.52.1-.73.1l-.21-1.25c0-.1-.1-.21-.31-.21-.31,0-1.35-.1-2.29-.1h-.42v3.54h2.29c.31,0,.31-.1.31-.31l.1-.73h.73v2.71h-.73l-.1-.73c0-.21-.1-.31-.31-.31h-2.29v3.43c0,.21,0,.31.83.31,1.14,0,1.98,0,2.29-.1.1,0,.21-.1.31-.31l.42-1.35c.31,0,.52.1.73.1-.21.73-.31,1.56-.52,2.29h-6.14v-.62l.83.1Z"/>
    </g>
    <path class="cls-1" d="m207.76,62.11l-1.98,8.84h-24.04v-17.06h-11.13v17.06h-5.41v-17.06h-17.48v17.06h-5.41v-31.01c-.1-1.25-1.25-2.29-2.6-2.29l-2.91-.21v-1.35h10.82v15.5h17.48v-15.5h5.41v15.5h11.13v-11.65c-.1-1.25-1.25-2.29-2.6-2.29l-2.91-.21v-1.35h29.24l.52,8.01h-1.25l-.42-1.66c-.62-2.39-1.14-3.75-4.79-4.16l-12.38.1v13.21h12.49c.1,0,1.77-.42,1.56-2.19h1.25v7.49h-1.14s.21-2.6-1.87-3.02h-12.17v9.16s0,1.87.31,2.71c.1.42.73,1.25,1.14,1.66.1.1.83.94,2.29,1.25.94.21,6.56.1,6.56.1l2.81-.1c.73,0,1.25-.21,1.77-.52.83-.52,1.98-1.46,2.39-2.39.62-1.46,1.56-3.75,1.56-3.75h1.77v.1Z"/>
    <path class="cls-1" d="m246.16,62.01c.42.21.73.42,1.14.62-.62,1.14-1.77,2.91-3.54,4.58-3.33,3.02-7.08,3.75-8.95,4.16-1.77.31-5.83.73-10.2-.94-4.68-1.66-7.18-4.68-8.53-6.66-2.08-3.23-2.6-6.24-2.81-7.39-.1-.73-.52-4.16.83-8.43.42-1.25,1.46-4.16,4.16-6.97,2.5-2.6,5.1-3.75,6.45-4.27.83-.31,3.33-1.25,6.66-1.46,1.56-.1,3.95-.21,6.97.83,1.98.62,3.43,1.56,4.47,2.29.31.1.94.31,1.77.21.62-.1,1.14-.42,1.46-.52.21,3.02.42,6.03.52,9.05-.42,0-.73.1-1.14.1-.21-1.14-.83-3.43-2.6-5.62-2.6-3.23-6.03-4.06-7.6-4.37-1.04-.21-4.79-.73-8.53,1.46-4.16,2.39-6.03,7.28-6.24,9.26-.21,1.56-1.14,7.8-.1,11.24.52,1.87,1.98,5.2,4.89,7.39,2.19,1.66,4.37,1.87,6.03,2.19,1.66.31,4.47.73,7.6-.52,2.6-1.04,4.27-2.81,5.2-3.75.94-.83,1.66-1.77,2.08-2.5Z"/>
  </g>
</svg>